# xmcd
#
# Track frame offsets:
#	150
#	16273
#	42157
#	75146
#	95580
#	120670
#	146699
#	168988
#	189968
#	205269
#	229250
#	249028
#	276276
#
# Disc length: 4199 seconds
#
# Revision: 1
# Processed by: cddbd v1.5.2PL0 Copyright (c) Steve Scherf et al.
# Submitted via: audiograbber 1.83.01
#
DISCID=9f10650d
DTITLE=James McMurtry - Best Of The Sugar Hill Years
DYEAR=2007
DGENRE=Country
TTITLE0=Sixty Acres
TTITLE1=Every Little Bit Counts
TTITLE2=No More Buffalo
TTITLE3=Gulf Road
TTITLE4=Tired Of Walking
TTITLE5=Lobo Town
TTITLE6=Broken Bed
TTITLE7=Paris
TTITLE8=Walk Between The Raindrops
TTITLE9=Fast As I Can
TTITLE10=Out Here In The Middle
TTITLE11=12 O'Clock Whistle
TTITLE12=Choctaw Bingo
EXTD=
EXTT0=
EXTT1=
EXTT2=
EXTT3=
EXTT4=
EXTT5=
EXTT6=
EXTT7=
EXTT8=
EXTT9=
EXTT10=
EXTT11=
EXTT12=
PLAYORDER=
